<?xml version="1.0" standalone="no"?>
<!DOCTYPE svg PUBLIC "-//W3C//DTD SVG 20010904//EN"
 "http://www.w3.org/TR/2001/REC-SVG-20010904/DTD/svg10.dtd">
<svg version="1.0" xmlns="http://www.w3.org/2000/svg"
 width="822.000000pt" height="822.000000pt" viewBox="0 0 822.000000 822.000000"
 preserveAspectRatio="xMidYMid meet">
<metadata>
Created by potrace 1.11, written by Peter Selinger 2001-2013
</metadata>
<g transform="translate(0.000000,822.000000) scale(0.100000,-0.100000)"
fill="#000000" stroke="none">
<path d="M5288 6905 c-120 -38 -233 -154 -272 -277 -18 -57 -18 -58 -56 -58
-41 0 -43 -2 -56 -72 l-6 -38 46 0 46 0 0 -40 c0 -39 -1 -40 -34 -40 -37 0
-39 -3 -52 -72 l-6 -38 49 0 49 0 18 -55 17 -55 110 0 c60 0 109 1 109 3 0 1
-9 20 -20 42 -33 65 -35 64 127 67 l147 3 6 25 c4 14 10 37 14 53 l6 27 -170
0 -170 0 0 40 0 40 177 2 177 3 6 25 c4 14 10 37 14 53 l6 27 -180 0 c-168 0
-180 1 -180 18 0 33 61 112 108 139 65 38 166 39 233 2 l46 -26 17 76 c21 100
21 105 -11 121 -42 21 -256 24 -315 5z"/>
</g>
</svg>
