<?xml version="1.0" standalone="no"?>
<!DOCTYPE svg PUBLIC "-//W3C//DTD SVG 20010904//EN"
 "http://www.w3.org/TR/2001/REC-SVG-20010904/DTD/svg10.dtd">
<svg version="1.0" xmlns="http://www.w3.org/2000/svg"
 width="780.000000pt" height="780.000000pt" viewBox="0 0 780.000000 780.000000"
 preserveAspectRatio="xMidYMid meet">
<metadata>
Created by potrace 1.11, written by Peter Selinger 2001-2013
</metadata>
<g transform="translate(0.000000,780.000000) scale(0.100000,-0.100000)"
fill="#000000" stroke="none">
<path d="M4915 6923 c-126 -28 -272 -93 -377 -167 -66 -46 -228 -200 -228
-216 0 -5 -6 -15 -12 -22 -13 -13 -51 -70 -80 -118 -29 -49 -78 -180 -99 -262
-25 -102 -37 -337 -17 -350 7 -4 479 -8 1049 -8 859 0 1038 2 1042 13 3 8 5
56 5 108 -1 101 -18 223 -44 304 -21 64 -86 209 -96 213 -5 2 -8 8 -8 14 0 9
-40 69 -80 122 -8 10 -40 45 -71 77 -253 260 -627 371 -984 292z"/>
<path d="M1082 5606 c-189 -46 -340 -202 -381 -394 -15 -74 -16 -3858 0 -3934
22 -109 103 -237 195 -309 35 -28 147 -76 202 -88 39 -8 768 -11 2685 -11
2246 0 2641 2 2692 15 194 46 342 197 384 393 7 35 11 218 11 547 l0 495 -750
0 c-648 0 -761 2 -828 16 -86 18 -247 77 -269 100 -8 8 -20 14 -28 14 -7 0
-15 4 -17 8 -1 5 -24 22 -49 39 -50 35 -189 169 -189 183 0 5 -6 13 -14 17
-25 15 -123 216 -146 303 -31 112 -39 302 -17 415 18 97 64 220 112 299 19 32
35 62 35 66 0 4 7 10 15 14 8 3 15 10 15 16 0 12 122 134 165 165 15 11 33 26
40 33 28 26 204 110 280 133 l80 24 783 3 782 3 0 502 c-1 551 -1 556 -62 675
-17 35 -57 89 -88 120 -67 68 -121 99 -245 140 -11 4 -1217 8 -2680 9 -2128 1
-2671 -1 -2713 -11z"/>
<path d="M5410 4060 c-83 -15 -100 -19 -110 -25 -5 -3 -18 -8 -27 -10 -32 -6
-137 -58 -198 -98 -144 -95 -288 -288 -330 -442 -4 -16 -9 -34 -11 -40 -27
-99 -29 -264 -4 -374 36 -159 107 -288 225 -406 83 -83 104 -98 198 -147 62
-32 100 -47 222 -86 37 -11 1427 -13 1470 -1 101 26 185 81 256 167 9 10 31
50 50 88 l34 69 3 465 c2 403 0 472 -14 519 -36 123 -111 218 -216 275 -104
56 -104 56 -833 55 -368 -1 -690 -5 -715 -9z m-3 -626 c40 -8 99 -61 118 -107
16 -39 19 -94 8 -147 -8 -41 -83 -115 -124 -124 -173 -34 -287 80 -253 252 8
37 69 105 109 120 34 12 98 15 142 6z"/>
</g>
</svg>
